<svg width="154" height="37" viewBox="0 0 154 37" fill="none" xmlns="http://www.w3.org/2000/svg">
<path d="M1.94382 26.3514L3.14 27.042L16.4659 3.96149L15.2697 3.27086L1.94382 26.3514Z" fill="#E535AB"/>
<path d="M28.3217 24.5076H1.66988V25.8888H28.3217V24.5076Z" fill="#E535AB"/>
<path d="M2.19727 25.2839L15.5282 32.9807L16.2188 31.7845L2.8879 24.0877L2.19727 25.2839Z" fill="#E535AB"/>
<path d="M13.7778 5.22382L27.1087 12.9207L27.7994 11.7245L14.4685 4.02764L13.7778 5.22382Z" fill="#E535AB"/>
<path d="M2.20101 11.7191L2.89165 12.9153L16.2226 5.21845L15.5319 4.02227L2.20101 11.7191Z" fill="#E535AB"/>
<path d="M13.5371 3.96198L26.863 27.0425L28.0592 26.3518L14.7333 3.27134L13.5371 3.96198Z" fill="#E535AB"/>
<path d="M4.10794 10.803H2.72667V26.1966H4.10794V10.803Z" fill="#E535AB"/>
<path d="M27.2734 10.803H25.8921V26.1966H27.2734V10.803Z" fill="#E535AB"/>
<path d="M14.6898 31.3509L15.293 32.3958L26.8873 25.7016L26.2841 24.6567L14.6898 31.3509Z" fill="#E535AB"/>
<path d="M29.1039 26.6461C28.3051 28.0357 26.5244 28.51 25.1348 27.7112C23.7453 26.9124 23.271 25.1317 24.0698 23.7421C24.8686 22.3526 26.6492 21.8783 28.0388 22.6771C29.4367 23.4842 29.911 25.2565 29.1039 26.6461Z" fill="#E535AB"/>
<path d="M5.92191 13.2575C5.1231 14.6471 3.34243 15.1213 1.95284 14.3225C0.563244 13.5237 0.0889529 11.7431 0.88776 10.3535C1.68657 8.96388 3.46724 8.48959 4.85683 9.28839C6.24642 10.0955 6.72071 11.8679 5.92191 13.2575Z" fill="#E535AB"/>
<path d="M0.896106 26.6461C0.0972995 25.2565 0.571591 23.4842 1.96118 22.6771C3.35077 21.8783 5.12312 22.3526 5.93025 23.7421C6.72906 25.1317 6.25477 26.9041 4.86518 27.7112C3.46727 28.51 1.69491 28.0357 0.896106 26.6461Z" fill="#E535AB"/>
<path d="M24.0781 13.2575C23.2793 11.8679 23.7536 10.0955 25.1432 9.28839C26.5328 8.48959 28.3051 8.96388 29.1123 10.3535C29.9111 11.7431 29.4368 13.5154 28.0472 14.3225C26.6576 15.1213 24.8769 14.6471 24.0781 13.2575Z" fill="#E535AB"/>
<path d="M15 34.7924C13.3941 34.7924 12.096 33.4943 12.096 31.8884C12.096 30.2824 13.3941 28.9844 15 28.9844C16.606 28.9844 17.904 30.2824 17.904 31.8884C17.904 33.486 16.606 34.7924 15 34.7924Z" fill="#E535AB"/>
<path d="M15 8.01551C13.3941 8.01551 12.096 6.71745 12.096 5.11151C12.096 3.50558 13.3941 2.20752 15 2.20752C16.606 2.20752 17.904 3.50558 17.904 5.11151C17.904 6.71745 16.606 8.01551 15 8.01551Z" fill="#E535AB"/>
<path d="M62.0645 25.8477L67.3008 30.0039L65.0723 31.959L59.9316 27.8438L62.0645 25.8477ZM67.3418 18V19.0938C67.3418 20.5977 67.1458 21.9466 66.7539 23.1406C66.362 24.3346 65.8014 25.3509 65.0723 26.1895C64.3431 27.028 63.4727 27.6706 62.4609 28.1172C61.4492 28.5547 60.3281 28.7734 59.0977 28.7734C57.8763 28.7734 56.7598 28.5547 55.748 28.1172C54.7454 27.6706 53.875 27.028 53.1367 26.1895C52.3984 25.3509 51.8242 24.3346 51.4141 23.1406C51.013 21.9466 50.8125 20.5977 50.8125 19.0938V18C50.8125 16.4961 51.013 15.1517 51.4141 13.9668C51.8151 12.7728 52.3802 11.7565 53.1094 10.918C53.8477 10.0703 54.7181 9.42773 55.7207 8.99023C56.7324 8.54362 57.849 8.32031 59.0703 8.32031C60.3008 8.32031 61.4219 8.54362 62.4336 8.99023C63.4544 9.42773 64.3294 10.0703 65.0586 10.918C65.7878 11.7565 66.3483 12.7728 66.7402 13.9668C67.1413 15.1517 67.3418 16.4961 67.3418 18ZM63.8965 19.0938V17.9727C63.8965 16.8607 63.7871 15.8809 63.5684 15.0332C63.3587 14.1764 63.0443 13.4609 62.625 12.8867C62.2148 12.3034 61.709 11.8659 61.1074 11.5742C60.515 11.2734 59.8359 11.123 59.0703 11.123C58.3229 11.123 57.653 11.2734 57.0605 11.5742C56.4681 11.8659 55.9622 12.3034 55.543 12.8867C55.1237 13.4609 54.8047 14.1764 54.5859 15.0332C54.3672 15.8809 54.2578 16.8607 54.2578 17.9727V19.0938C54.2578 20.2057 54.3672 21.1901 54.5859 22.0469C54.8047 22.9036 55.1237 23.6283 55.543 24.2207C55.9714 24.804 56.4818 25.2461 57.0742 25.5469C57.6758 25.8385 58.3503 25.9844 59.0977 25.9844C59.8633 25.9844 60.5423 25.8385 61.1348 25.5469C61.7272 25.2461 62.2285 24.804 62.6387 24.2207C63.0488 23.6283 63.3587 22.9036 63.5684 22.0469C63.7871 21.1901 63.8965 20.2057 63.8965 19.0938ZM73.8086 16.5234V28.5H70.5137V13.707H73.6582L73.8086 16.5234ZM78.334 13.6113L78.3066 16.6738C78.1061 16.6374 77.8874 16.61 77.6504 16.5918C77.4225 16.5736 77.1947 16.5645 76.9668 16.5645C76.4017 16.5645 75.9049 16.6465 75.4766 16.8105C75.0482 16.9655 74.6882 17.1934 74.3965 17.4941C74.1139 17.7858 73.8952 18.1413 73.7402 18.5605C73.5853 18.9798 73.4941 19.4492 73.4668 19.9688L72.7148 20.0234C72.7148 19.0938 72.806 18.2324 72.9883 17.4395C73.1706 16.6465 73.444 15.9492 73.8086 15.3477C74.1823 14.7461 74.6471 14.2767 75.2031 13.9395C75.7682 13.6022 76.4199 13.4336 77.1582 13.4336C77.3587 13.4336 77.5729 13.4518 77.8008 13.4883C78.0378 13.5247 78.2155 13.5658 78.334 13.6113ZM88.2461 25.5332V18.4785C88.2461 17.9499 88.1504 17.4941 87.959 17.1113C87.7676 16.7285 87.4759 16.4323 87.084 16.2227C86.7012 16.013 86.2181 15.9082 85.6348 15.9082C85.097 15.9082 84.6322 15.9993 84.2402 16.1816C83.8483 16.3639 83.543 16.61 83.3242 16.9199C83.1055 17.2298 82.9961 17.5807 82.9961 17.9727H79.7148C79.7148 17.3893 79.8561 16.8242 80.1387 16.2773C80.4212 15.7305 80.8314 15.2428 81.3691 14.8145C81.9069 14.3861 82.5495 14.0488 83.2969 13.8027C84.0443 13.5566 84.8828 13.4336 85.8125 13.4336C86.9245 13.4336 87.9089 13.6204 88.7656 13.9941C89.6315 14.3678 90.3105 14.9329 90.8027 15.6895C91.304 16.4368 91.5547 17.3757 91.5547 18.5059V25.082C91.5547 25.7565 91.6003 26.3626 91.6914 26.9004C91.7917 27.429 91.9329 27.8893 92.1152 28.2812V28.5H88.7383C88.5833 28.1445 88.4603 27.6934 88.3691 27.1465C88.2871 26.5905 88.2461 26.0527 88.2461 25.5332ZM88.7246 19.5039L88.752 21.541H86.3867C85.776 21.541 85.2383 21.6003 84.7734 21.7188C84.3086 21.8281 83.9212 21.9922 83.6113 22.2109C83.3014 22.4297 83.069 22.694 82.9141 23.0039C82.7591 23.3138 82.6816 23.6647 82.6816 24.0566C82.6816 24.4486 82.7728 24.8086 82.9551 25.1367C83.1374 25.4557 83.4017 25.7064 83.748 25.8887C84.1035 26.071 84.5319 26.1621 85.0332 26.1621C85.7077 26.1621 86.2956 26.0254 86.7969 25.752C87.3073 25.4694 87.7083 25.1276 88 24.7266C88.2917 24.3164 88.4466 23.929 88.4648 23.5645L89.5312 25.0273C89.4219 25.401 89.235 25.8021 88.9707 26.2305C88.7064 26.6589 88.36 27.069 87.9316 27.4609C87.5124 27.8438 87.0065 28.1582 86.4141 28.4043C85.8307 28.6504 85.1562 28.7734 84.3906 28.7734C83.4245 28.7734 82.5632 28.582 81.8066 28.1992C81.0501 27.8073 80.4577 27.2832 80.0293 26.627C79.6009 25.9616 79.3867 25.2096 79.3867 24.3711C79.3867 23.5872 79.5326 22.8945 79.8242 22.293C80.125 21.6823 80.5625 21.1719 81.1367 20.7617C81.7201 20.3516 82.431 20.0417 83.2695 19.832C84.1081 19.6133 85.0651 19.5039 86.1406 19.5039H88.7246ZM98.3086 16.5508V34.1875H95.0137V13.707H98.0488L98.3086 16.5508ZM107.947 20.9668V21.2539C107.947 22.3294 107.82 23.3275 107.564 24.248C107.318 25.1595 106.949 25.957 106.457 26.6406C105.974 27.3151 105.377 27.8392 104.666 28.2129C103.955 28.5866 103.135 28.7734 102.205 28.7734C101.285 28.7734 100.478 28.6048 99.7852 28.2676C99.1016 27.9212 98.5228 27.4336 98.0488 26.8047C97.5749 26.1758 97.1921 25.4375 96.9004 24.5898C96.6178 23.7331 96.4173 22.7943 96.2988 21.7734V20.666C96.4173 19.5814 96.6178 18.597 96.9004 17.7129C97.1921 16.8288 97.5749 16.0677 98.0488 15.4297C98.5228 14.7917 99.1016 14.2995 99.7852 13.9531C100.469 13.6068 101.266 13.4336 102.178 13.4336C103.107 13.4336 103.932 13.6159 104.652 13.9805C105.372 14.3359 105.979 14.8464 106.471 15.5117C106.963 16.168 107.332 16.9609 107.578 17.8906C107.824 18.8112 107.947 19.8366 107.947 20.9668ZM104.652 21.2539V20.9668C104.652 20.2832 104.589 19.6497 104.461 19.0664C104.333 18.474 104.133 17.9544 103.859 17.5078C103.586 17.0612 103.235 16.7148 102.807 16.4688C102.387 16.2135 101.882 16.0859 101.289 16.0859C100.706 16.0859 100.204 16.1862 99.7852 16.3867C99.3659 16.5781 99.015 16.847 98.7324 17.1934C98.4499 17.5397 98.2311 17.9453 98.0762 18.4102C97.9212 18.8659 97.8118 19.3626 97.748 19.9004V22.5527C97.8574 23.209 98.0443 23.8105 98.3086 24.3574C98.5729 24.9043 98.9466 25.3418 99.4297 25.6699C99.9219 25.9889 100.551 26.1484 101.316 26.1484C101.909 26.1484 102.415 26.0208 102.834 25.7656C103.253 25.5104 103.595 25.1595 103.859 24.7129C104.133 24.2572 104.333 23.7331 104.461 23.1406C104.589 22.5482 104.652 21.9193 104.652 21.2539ZM114.004 7.5V28.5H110.723V7.5H114.004ZM113.43 20.5566L112.363 20.543C112.372 19.5221 112.514 18.5788 112.787 17.7129C113.07 16.847 113.462 16.0951 113.963 15.457C114.473 14.8099 115.084 14.3132 115.795 13.9668C116.506 13.6113 117.294 13.4336 118.16 13.4336C118.889 13.4336 119.546 13.5339 120.129 13.7344C120.721 13.9349 121.232 14.2585 121.66 14.7051C122.089 15.1426 122.412 15.7168 122.631 16.4277C122.859 17.1296 122.973 17.9863 122.973 18.998V28.5H119.664V18.9707C119.664 18.2598 119.559 17.6947 119.35 17.2754C119.149 16.8561 118.853 16.5553 118.461 16.373C118.069 16.1816 117.59 16.0859 117.025 16.0859C116.433 16.0859 115.909 16.2044 115.453 16.4414C115.007 16.6784 114.633 17.002 114.332 17.4121C114.031 17.8223 113.803 18.2962 113.648 18.834C113.503 19.3717 113.43 19.946 113.43 20.5566ZM137.178 25.8477L142.414 30.0039L140.186 31.959L135.045 27.8438L137.178 25.8477ZM142.455 18V19.0938C142.455 20.5977 142.259 21.9466 141.867 23.1406C141.475 24.3346 140.915 25.3509 140.186 26.1895C139.456 27.028 138.586 27.6706 137.574 28.1172C136.562 28.5547 135.441 28.7734 134.211 28.7734C132.99 28.7734 131.873 28.5547 130.861 28.1172C129.859 27.6706 128.988 27.028 128.25 26.1895C127.512 25.3509 126.938 24.3346 126.527 23.1406C126.126 21.9466 125.926 20.5977 125.926 19.0938V18C125.926 16.4961 126.126 15.1517 126.527 13.9668C126.928 12.7728 127.493 11.7565 128.223 10.918C128.961 10.0703 129.831 9.42773 130.834 8.99023C131.846 8.54362 132.962 8.32031 134.184 8.32031C135.414 8.32031 136.535 8.54362 137.547 8.99023C138.568 9.42773 139.443 10.0703 140.172 10.918C140.901 11.7565 141.462 12.7728 141.854 13.9668C142.255 15.1517 142.455 16.4961 142.455 18ZM139.01 19.0938V17.9727C139.01 16.8607 138.9 15.8809 138.682 15.0332C138.472 14.1764 138.158 13.4609 137.738 12.8867C137.328 12.3034 136.822 11.8659 136.221 11.5742C135.628 11.2734 134.949 11.123 134.184 11.123C133.436 11.123 132.766 11.2734 132.174 11.5742C131.581 11.8659 131.076 12.3034 130.656 12.8867C130.237 13.4609 129.918 14.1764 129.699 15.0332C129.48 15.8809 129.371 16.8607 129.371 17.9727V19.0938C129.371 20.2057 129.48 21.1901 129.699 22.0469C129.918 22.9036 130.237 23.6283 130.656 24.2207C131.085 24.804 131.595 25.2461 132.188 25.5469C132.789 25.8385 133.464 25.9844 134.211 25.9844C134.977 25.9844 135.656 25.8385 136.248 25.5469C136.84 25.2461 137.342 24.804 137.752 24.2207C138.162 23.6283 138.472 22.9036 138.682 22.0469C138.9 21.1901 139.01 20.2057 139.01 19.0938ZM149.141 7.5V28.5H145.832V7.5H149.141Z" fill="#E535AB"/>
</svg>
